<svg id="Camada_1" data-name="Camada 1" xmlns="http://www.w3.org/2000/svg" viewBox="0 0 400 400"><defs><style>.cls-1{fill:#faa41a;}.cls-2{fill:#14181a;stroke:#faa41a;stroke-miterlimit:10;stroke-width:8px;}.cls-3{fill:#fff;}</style></defs><polygon class="cls-1" points="358.72 20.31 61.35 98.86 61.19 390.46 358.56 311.91 358.72 20.31"/><polygon class="cls-2" points="338.81 9.54 41.45 88.09 41.28 379.69 338.64 301.14 338.81 9.54"/><path class="cls-3" d="M101.65,201.87l.07-70.15c0-3.47,1-5,4.4-5.87L150,114.15c3.35-.89,4.5,0,4.5,3.51v10.08c0,3.59-1.16,5-4.51,5.91L122.33,141V151.1l22.1-5.89c3.35-.89,4.5,0,4.5,3.62v10c0,3.59-1.16,5.13-4.51,6l-22.1,5.89v10.76l28.59-7.62c3.24-.87,4.4,0,4.39,3.53v10.2c0,3.47-1.16,5-4.4,5.88L106,205.4C102.69,206.29,101.64,205.34,101.65,201.87Z"/><path class="cls-3" d="M163.64,185.35l.07-70.15c0-3.47,1.06-5,4.41-5.87l12.35-3.3c2.31-.61,3.46-.24,4.4,1.07L202,131.32c4.6,6.4,5.54,10.51,8.78,18.05l.83-.22c-3.34-10.54-4.69-15.66-4.68-27l0-18.49c0-3.47,1-5,4.4-5.88L222,95c3.25-.87,4.4.06,4.4,3.53l-.08,70.14c0,3.48-1.15,5-4.4,5.88l-11.83,3.15c-2.2.59-3.35.22-4.29-1.09l-16.1-22.37c-4.6-6.51-6.38-11.3-9.19-20.52l-.84.23c2.19,9.94,3.44,15.43,3.43,28l0,18.27c0,3.47-1.16,5-4.51,5.9L168,188.88C164.68,189.77,163.64,188.82,163.64,185.35Z"/><path class="cls-3" d="M106.13,299.84l.08-70.14c0-3.47,1.05-5,4.4-5.88l43.87-11.69c3.36-.89,4.51,0,4.5,3.51v10.08c0,3.59-1.16,5-4.51,5.91L126.82,239v10.09l22.09-5.89c3.35-.89,4.5,0,4.5,3.62v10c0,3.59-1.16,5.12-4.51,6l-22.09,5.88v10.76l28.58-7.62c3.25-.86,4.4-.05,4.4,3.54v10.19c0,3.48-1.16,5-4.41,5.88l-44.81,11.95C107.18,304.27,106.13,303.31,106.13,299.84Z"/><path class="cls-3" d="M189.17,277.94l.08-70.59c0-3.37,1.05-4.76,4.19-5.6l12.25-3.27c3.14-.83,4.19,0,4.18,3.37l-.07,70.59c0,3.36-1.05,4.76-4.19,5.6l-12.25,3.26C190.21,282.14,189.17,281.3,189.17,277.94Z"/><path class="cls-3" d="M228.44,211l-55.66,14.83c-2.65.71-3.53,0-3.53-2.84V212c0-2.83.89-4,3.54-4.72l55.65-14.83c2.65-.71,3.54,0,3.53,2.84v11.06C232,209.15,231.08,210.33,228.44,211Z"/><path class="cls-3" d="M228.13,272l-55.65,14.83c-2.66.7-3.54,0-3.53-2.84V273c0-2.84.88-4,3.53-4.72l55.66-14.84c2.65-.7,3.53,0,3.53,2.84v11.06C231.66,270.15,230.78,271.33,228.13,272Z"/><path class="cls-1" d="M301.44,253.29l-55.66,14.83c-2.65.71-3.53,0-3.53-2.84l0-11.06c0-2.83.88-4,3.53-4.72l55.66-14.83c2.65-.71,3.53,0,3.53,2.84v11.06C305,251.41,304.09,252.59,301.44,253.29Z"/></svg>